<?xml version="1.0" encoding="utf-8"?>
<!-- Generator: Adobe Illustrator 15.1.0, SVG Export Plug-In . SVG Version: 6.00 Build 0)  -->
<!DOCTYPE svg PUBLIC "-//W3C//DTD SVG 1.1//EN" "http://www.w3.org/Graphics/SVG/1.1/DTD/svg11.dtd">
<svg version="1.1" id="Capa_1" xmlns="http://www.w3.org/2000/svg" xmlns:xlink="http://www.w3.org/1999/xlink" x="0px" y="0px"
	 width="708.661px" height="100.036px" viewBox="0 0 708.661 100.036" enable-background="new 0 0 708.661 100.036"
	 xml:space="preserve">
<g>
	<defs>
		<rect id="SVGID_1_" y="4.275" width="708.661" height="95.761"/>
	</defs>
	<clipPath id="SVGID_2_">
		<use xlink:href="#SVGID_1_"  overflow="visible"/>
	</clipPath>
	<g clip-path="url(#SVGID_2_)">
		<path fill="#F26323" d="M146.789,70.148l-14.317,30.659c-1.506,3.164-2.801,5.288-3.89,6.379c-1.041,1.036-2.44,1.554-4.202,1.557
			c-1.713,0-3.142-0.521-4.281-1.557c-1.088-1.091-1.632-2.463-1.632-4.123c0-1.193,0.672-3.266,2.023-6.225l11.515-24.588
			c1.659-3.633,2.488-5.939,2.489-6.927c0-1.192-0.621-1.787-1.866-1.789c-2.439,0-6.876,2.7-13.307,8.091l-0.39,0.311
			l-13.461,28.871c-1.505,3.164-2.801,5.288-3.89,6.379c-1.037,1.036-2.438,1.554-4.202,1.557c-1.713,0-3.112-0.521-4.203-1.557
			c-1.139-1.091-1.707-2.463-1.71-4.123c0-1.193,0.699-3.266,2.101-6.225l17.974-38.596c1.503-3.161,2.774-5.264,3.813-6.303
			c1.091-1.087,2.515-1.633,4.279-1.633c1.764,0,3.139,0.467,4.126,1.399c1.036,0.935,1.631,2.234,1.79,3.893
			c4.768-3.526,9.021-5.29,12.759-5.292c2.438,0,4.461,0.598,6.069,1.79c1.607,1.141,2.645,2.723,3.111,4.747
			c6.017-4.359,11.671-6.537,16.966-6.537c3.213,0,5.859,0.933,7.936,2.801c2.073,1.867,3.109,4.229,3.11,7.081
			c0,2.542-0.464,5.034-1.398,7.47c-0.884,2.438-3.062,7.16-6.536,14.161c-2.439,4.877-3.866,7.781-4.28,8.714
			c-0.366,0.936-0.544,1.818-0.544,2.645c0,0.678,0.233,1.302,0.7,1.869c0.519,0.52,1.113,0.778,1.79,0.778
			c1.245,0,2.695-0.491,4.356-1.479c1.657-1.035,4.305-3.008,7.937-5.912c2.748-2.179,4.616-3.553,5.604-4.125
			c1.035-0.621,2.124-0.933,3.265-0.933c1.402,0,2.594,0.495,3.581,1.477c1.036,0.935,1.554,2.078,1.557,3.425
			c0,2.076-1.611,4.616-4.824,7.625c-2.801,2.543-5.734,4.773-8.793,6.693c-3.011,1.866-6.045,3.371-9.104,4.514
			c-3.061,1.088-5.628,1.633-7.703,1.633c-3.683,0-6.641-1.013-8.87-3.035c-2.178-2.074-3.269-4.875-3.269-8.402
			c0-2.387,0.467-4.953,1.401-7.705c0.935-2.748,2.592-6.561,4.98-11.438c3.63-7.054,5.443-11.358,5.445-12.917
			c0-0.467-0.183-0.857-0.544-1.168c-0.366-0.361-0.855-0.542-1.479-0.544C156.177,63.535,152.182,65.74,146.789,70.148
			L146.789,70.148z"/>
		<path fill="#F26323" d="M209.581,101.972c-3.423,2.648-6.278,4.438-8.56,5.369c-2.232,0.934-4.668,1.402-7.313,1.402
			c-4.567,0-8.196-1.427-10.894-4.28c-2.645-2.903-3.967-6.768-3.967-11.595c0-6.276,2.256-12.656,6.768-19.141
			c4.563-6.481,10.58-11.849,18.053-16.105c2.49-1.503,5.368-2.905,8.637-4.203c3.319-1.296,6.561-2.307,9.729-3.035
			c3.161-0.725,5.858-1.085,8.092-1.088c4.718,0,7.076,1.867,7.08,5.601c0,1.713-0.6,3.036-1.791,3.97
			c-1.142,0.881-3.189,1.582-6.146,2.101c-4.824,0.88-9.054,2.099-12.684,3.655c-3.578,1.506-7.056,3.502-10.426,5.993
			c-4.202,3.062-7.574,6.485-10.115,10.272c-2.489,3.735-3.735,7.081-3.735,10.036c0,1.611,0.361,2.906,1.089,3.893
			c0.777,0.934,1.813,1.398,3.112,1.398c1.868,0,3.786-0.723,5.758-2.178c2.023-1.502,4.46-3.942,7.314-7.313l0.7-1.712
			c1.401-3.269,2.18-5.005,2.334-5.215l2.413-5.135c1.503-3.215,2.877-5.442,4.123-6.69c1.296-1.245,2.877-1.869,4.747-1.869
			c1.657,0,3.033,0.495,4.124,1.48c1.091,0.934,1.635,2.128,1.635,3.578c0,1.352-0.677,3.452-2.022,6.303l-2.567,5.369
			c-0.366,0.777-0.757,1.584-1.169,2.412c-0.365,0.778-0.753,1.583-1.168,2.414c-1.298,2.594-1.943,4.409-1.943,5.445
			c0,1.867,0.905,2.801,2.722,2.801c1.142,0,2.565-0.518,4.28-1.557c1.763-1.088,4.771-3.24,9.025-6.458
			c2.491-1.867,4.124-3.035,4.901-3.5c0.831-0.468,1.71-0.7,2.647-0.7c1.347,0,2.541,0.494,3.578,1.479
			c1.089,0.932,1.636,2.049,1.636,3.346c0,3.166-3.244,6.979-9.728,11.438c-4.877,3.32-8.896,5.627-12.061,6.926
			c-3.112,1.246-6.25,1.867-9.415,1.867C213.29,108.743,210.359,106.487,209.581,101.972L209.581,101.972z"/>
		<path fill="#F26323" d="M265.605,56.298c1.606-1.606,3.81-3.006,6.613-4.201c2.8-1.192,5.315-1.788,7.547-1.79
			c3.216,0,5.811,0.933,7.782,2.801c2.023,1.867,3.034,4.333,3.034,7.392c0,3.89-1.454,8.691-4.356,14.395l-3.502,6.925l-3.19,6.382
			c-1.194,2.332-1.79,4.021-1.79,5.057c0,1.766,0.803,2.645,2.413,2.645c0.778,0,1.633-0.207,2.567-0.622
			c0.933-0.414,2.125-1.114,3.579-2.103c1.452-0.982,3.526-2.564,6.226-4.744c2.746-2.126,4.641-3.476,5.68-4.046
			c1.035-0.623,2.124-0.934,3.268-0.934c1.402,0,2.592,0.493,3.579,1.478c0.984,0.988,1.477,2.178,1.479,3.58
			c0,2.699-2.49,5.912-7.471,9.647c-9.131,7.057-16.858,10.58-23.186,10.583c-3.581,0-6.536-1.09-8.87-3.27
			c-2.286-2.178-3.425-5.058-3.425-8.635c0-1.869,0.545-4.358,1.633-7.473c0.985-2.592,3.423-7.726,7.314-15.405
			c2.336-4.616,3.502-7.416,3.502-8.404c0-1.453-0.754-2.176-2.257-2.18c-1.453,0-3.604,0.833-6.457,2.491
			c-2.801,1.611-5.551,3.607-8.248,5.992l-13.538,28.947c-1.559,3.268-2.856,5.42-3.893,6.456c-0.987,0.984-2.386,1.477-4.202,1.479
			c-1.71,0-3.112-0.521-4.2-1.557c-1.142-1.091-1.711-2.463-1.712-4.123c0-1.193,0.7-3.293,2.1-6.303l17.977-38.518
			c1.449-3.112,2.719-5.21,3.813-6.303c1.088-1.087,2.514-1.633,4.279-1.633c1.762,0,3.187,0.521,4.28,1.556
			c1.089,0.987,1.633,2.283,1.633,3.89V56.298L265.605,56.298z"/>
		<path fill-rule="evenodd" clip-rule="evenodd" fill="#F26323" d="M295.717,83.843l11.984-25.6
			c1.503-3.215,2.774-5.341,3.813-6.379c1.089-1.035,2.515-1.554,4.279-1.556c1.658,0,3.06,0.521,4.2,1.556
			c1.143,1.039,1.711,2.387,1.714,4.047c0,1.298-0.701,3.397-2.102,6.303l-12.138,26.143c-1.038,2.233-1.556,3.841-1.556,4.823
			c0,1.662,0.802,2.49,2.41,2.49c2.23,0,6.404-2.41,12.529-7.234c2.435-1.969,4.274-3.293,5.524-3.969
			c1.242-0.725,2.307-1.087,3.188-1.089c1.401,0,2.592,0.495,3.579,1.477c0.985,0.987,1.478,2.206,1.479,3.659
			c0,2.543-2.41,5.758-7.234,9.647c-8.82,7.057-16.602,10.58-23.345,10.583c-3.684,0-6.64-1.09-8.87-3.27
			c-2.232-2.178-3.343-4.979-3.345-8.402c0-1.659,0.337-3.604,1.011-5.836C293.512,89.006,294.47,86.542,295.717,83.843
			L295.717,83.843z M330.343,39.334c0,2.544-0.754,4.696-2.257,6.46c-1.455,1.712-3.397,2.567-5.836,2.567
			c-2.023,0-3.683-0.648-4.979-1.945c-1.243-1.347-1.867-3.06-1.867-5.136c0-2.591,0.752-4.694,2.257-6.302
			c1.556-1.607,3.501-2.41,5.836-2.414c1.97,0,3.603,0.624,4.902,1.869C329.695,35.679,330.34,37.312,330.343,39.334L330.343,39.334
			z"/>
		<path fill="#F26323" d="M353.373,101.972c-3.421,2.648-6.277,4.438-8.556,5.369c-2.232,0.934-4.67,1.402-7.314,1.402
			c-4.569,0-8.198-1.427-10.896-4.28c-2.645-2.903-3.966-6.768-3.966-11.595c0-6.276,2.256-12.656,6.769-19.141
			c4.564-6.481,10.578-11.849,18.051-16.105c2.491-1.503,5.368-2.905,8.637-4.203c3.317-1.296,6.562-2.307,9.729-3.035
			c3.163-0.725,5.858-1.085,8.093-1.088c4.718,0,7.078,1.867,7.08,5.601c0,1.713-0.601,3.036-1.79,3.97
			c-1.143,0.881-3.19,1.582-6.149,2.101c-4.821,0.88-9.049,2.099-12.683,3.655c-3.577,1.506-7.057,3.502-10.425,5.993
			c-4.203,3.062-7.574,6.485-10.116,10.272c-2.49,3.735-3.734,7.081-3.734,10.036c0,1.611,0.361,2.906,1.088,3.893
			c0.778,0.934,1.813,1.398,3.114,1.398c1.866,0,3.786-0.723,5.757-2.178c2.022-1.502,4.459-3.942,7.313-7.313l0.7-1.712
			c1.404-3.269,2.182-5.005,2.335-5.215l2.415-5.135c1.504-3.215,2.873-5.442,4.122-6.69c1.296-1.245,2.878-1.869,4.747-1.869
			c1.661,0,3.034,0.495,4.123,1.48c1.091,0.934,1.637,2.128,1.637,3.578c0,1.352-0.679,3.452-2.024,6.303l-2.565,5.369
			c-0.366,0.777-0.755,1.584-1.17,2.412c-0.363,0.778-0.753,1.583-1.169,2.414c-1.299,2.594-1.942,4.409-1.942,5.445
			c0,1.867,0.905,2.801,2.723,2.801c1.141,0,2.565-0.518,4.28-1.557c1.762-1.088,4.77-3.24,9.024-6.458
			c2.49-1.867,4.127-3.035,4.903-3.5c0.829-0.468,1.709-0.7,2.646-0.7c1.347,0,2.541,0.494,3.578,1.479
			c1.091,0.932,1.634,2.049,1.634,3.346c0,3.166-3.242,6.979-9.727,11.438c-4.876,3.32-8.895,5.627-12.059,6.926
			c-3.114,1.246-6.251,1.867-9.417,1.867C357.083,108.743,354.152,106.487,353.373,101.972L353.373,101.972z"/>
		<path fill="#F26323" d="M380.875,88.423c0,0,22.845-23.241,52.026-17.889c29.187,5.35,20.566,23.81,53.244,24.475
			c32.242,0.656,50.213-10.791,50.213-10.791l3.657,10.251c0,0-20.222,12.784-56.179,11.474
			c-35.964-1.313-31.156-21.267-52.466-24.212c-21.313-2.948-42.539,15.04-42.539,15.04L380.875,88.423L380.875,88.423z"/>
		<polygon fill="#F26323" points="530.952,84.592 536.387,98.021 544.17,96.716 537.834,80.006 530.952,84.592 		"/>
		<polygon fill="#F26323" points="540.418,78.684 547.294,95.972 553.447,94.718 545.899,74.823 540.418,78.684 		"/>
		<polygon fill="#F26323" points="548.711,73.321 556.957,94.219 562.97,92.911 554.112,69.854 548.711,73.321 		"/>
		<polygon fill="#F26323" points="556.724,68.28 566.177,92.364 573.823,91.005 598.151,81.318 595.25,74.081 606.612,69.452 
			601.297,57.036 590.464,61.536 587.605,54.474 563.572,63.785 556.724,68.28 		"/>
		<polygon fill="#F26323" points="604.035,55.992 609.303,68.551 632.678,59.268 627.606,46.616 604.035,55.992 		"/>
		<polygon fill="#F26323" points="630.529,45.962 635.419,58.223 637.402,57.654 636.646,54.854 646.743,53.418 649.012,47.905 
			647.657,44.24 641.448,41.656 633.744,47.617 632.473,45.055 630.529,45.962 		"/>
		<path fill="#F26323" d="M618.513,101.065c0,3.705,2.984,6.691,6.691,6.691c3.705,0,6.691-2.986,6.691-6.691
			s-2.986-6.694-6.691-6.694C621.497,94.371,618.513,97.36,618.513,101.065L618.513,101.065z"/>
		<path fill-rule="evenodd" clip-rule="evenodd" fill="#F26323" d="M671.155,101.243c0-1.973-1.673-4.063-3.828-4.063
			c-3.763,0-6.395,3.825-10.875,3.825c-4.002,0-6.271-2.569-6.574-6.515h17.449c3.947,0,5.679-1.314,5.679-5.02
			c0-4.66-4.182-14.103-17.926-14.103c-9.799,0-17.508,5.08-17.508,16.374c0,11.354,7.709,16.433,17.508,16.433
			C666.973,108.176,671.155,104.649,671.155,101.243L671.155,101.243z M649.878,88.397c0.179-4.361,3.049-5.857,5.8-5.857
			c3.044,0,5.737,1.554,5.737,5.857H649.878L649.878,88.397z"/>
		<path fill="#F26323" d="M695.994,98.914c0,1.196-1.256,2.45-3.886,2.45c-5.917,0-7.588-4.543-11.053-4.543
			c-2.394,0-4.365,1.734-4.365,3.765c0,5.2,7.052,7.59,14.999,7.59c12.911,0,16.972-5.378,16.972-10.815
			c0-5.02-4.183-7.828-10.931-9.322l-5.203-1.137c-3.286-0.716-3.822-1.313-3.822-2.508c0-1.435,1.252-2.211,3.461-2.211
			c5.86,0,7.11,3.822,11.179,3.822c2.391,0,4.062-1.672,4.062-3.822c0-4.78-7.59-6.813-14.879-6.813
			c-12.313,0-15.773,5.379-15.773,10.159c0,4.602,2.63,7.828,11.591,9.739l3.646,0.778
			C695.396,96.764,695.994,97.838,695.994,98.914L695.994,98.914z"/>
		<path fill="#F26323" d="M68.846,23.199c0-4.272,3.464-7.737,7.736-7.737c4.273,0,7.736,3.465,7.736,7.737
			c0,4.273-3.463,7.734-7.736,7.734C72.31,30.933,68.846,27.472,68.846,23.199L68.846,23.199z M69.143,60.436h15.455v54.922
			c-0.069,38.073-38.455,36.651-38.455,36.651c-4.119-0.176-7.403-3.57-7.403-7.732c0-4.187,3.334-7.598,7.486-7.734
			c23.053-0.135,22.98-19.138,22.917-21.078V60.436L69.143,60.436z M69.143,61.223v0.68l-0.018-0.507
			c0-4.271,3.463-7.736,7.736-7.736c4.213,0,7.641,3.371,7.736,7.563H69.143L69.143,61.223z"/>
		<path fill="#F26323" d="M14.493,92.61c0,8.617,6.986,15.602,15.605,15.602c8.617,0,15.604-6.984,15.604-15.602
			c0-8.619-6.987-15.604-15.604-15.604C21.479,77.006,14.493,83.991,14.493,92.61L14.493,92.61z M45.059,23.199
			c0-4.272,3.463-7.737,7.736-7.737c4.126,0,7.508,3.233,7.731,7.305v69.588c-0.009,17.043-13.556,30.592-30.266,30.592
			C13.547,122.946,0,109.397,0,92.686s13.547-30.258,30.261-30.258c5.378,0,10.432,1.405,14.811,3.866V23.668L45.059,23.199
			L45.059,23.199z"/>
	</g>
</g>
</svg>
