<?xml version="1.0" encoding="utf-8"?>
<!-- Generator: Adobe Illustrator 15.1.0, SVG Export Plug-In . SVG Version: 6.00 Build 0)  -->
<!DOCTYPE svg PUBLIC "-//W3C//DTD SVG 1.1//EN" "http://www.w3.org/Graphics/SVG/1.1/DTD/svg11.dtd">
<svg version="1.1" id="Capa_1" xmlns="http://www.w3.org/2000/svg" xmlns:xlink="http://www.w3.org/1999/xlink" x="0px" y="0px"
	 width="708.661px" height="148.926px" viewBox="0 0 708.661 148.926" enable-background="new 0 0 708.661 148.926"
	 xml:space="preserve">
<g>
	<path fill="#FF6100" d="M146.789,60.874l-14.317,30.659c-1.506,3.165-2.801,5.289-3.89,6.379c-1.041,1.036-2.44,1.554-4.202,1.556
		c-1.713,0-3.142-0.52-4.281-1.556c-1.088-1.092-1.632-2.463-1.632-4.123c0-1.193,0.672-3.268,2.023-6.227l11.515-24.587
		c1.659-3.633,2.488-5.939,2.489-6.927c0-1.192-0.621-1.787-1.866-1.789c-2.439,0-6.876,2.7-13.307,8.091l-0.39,0.311l-13.461,28.87
		c-1.505,3.164-2.801,5.289-3.89,6.379c-1.037,1.035-2.438,1.554-4.202,1.556c-1.713,0-3.112-0.521-4.203-1.556
		c-1.139-1.092-1.707-2.463-1.71-4.123c0-1.193,0.699-3.268,2.101-6.227l17.974-38.596c1.503-3.161,2.774-5.264,3.813-6.303
		c1.091-1.087,2.515-1.633,4.279-1.633c1.764,0,3.139,0.467,4.126,1.399c1.036,0.935,1.631,2.234,1.79,3.893
		c4.768-3.526,9.021-5.29,12.759-5.292c2.438,0,4.461,0.598,6.069,1.79c1.607,1.141,2.645,2.723,3.111,4.747
		c6.017-4.359,11.671-6.537,16.966-6.537c3.213,0,5.859,0.933,7.936,2.801c2.073,1.867,3.109,4.229,3.11,7.081
		c0,2.542-0.464,5.034-1.398,7.47c-0.884,2.438-3.062,7.16-6.536,14.161c-2.439,4.877-3.866,7.781-4.28,8.714
		c-0.366,0.936-0.544,1.818-0.544,2.645c0,0.678,0.233,1.302,0.7,1.869c0.519,0.521,1.113,0.778,1.79,0.778
		c1.245,0,2.695-0.491,4.356-1.479c1.657-1.035,4.305-3.008,7.937-5.912c2.748-2.18,4.616-3.553,5.604-4.125
		c1.035-0.621,2.124-0.933,3.265-0.933c1.402,0,2.594,0.495,3.581,1.477c1.036,0.934,1.554,2.077,1.557,3.425
		c0,2.076-1.611,4.616-4.824,7.625c-2.801,2.542-5.734,4.773-8.793,6.693c-3.011,1.867-6.045,3.371-9.104,4.514
		c-3.061,1.089-5.628,1.633-7.703,1.633c-3.683,0-6.641-1.012-8.87-3.035c-2.178-2.072-3.269-4.875-3.269-8.402
		c0-2.387,0.467-4.952,1.401-7.704c0.935-2.748,2.592-6.56,4.98-11.438c3.63-7.054,5.443-11.358,5.445-12.917
		c0-0.467-0.183-0.857-0.544-1.168c-0.366-0.361-0.855-0.542-1.479-0.544C156.177,54.26,152.182,56.465,146.789,60.874
		L146.789,60.874z"/>
	<path fill="#FF6100" d="M209.581,92.697c-3.423,2.648-6.278,4.437-8.56,5.369c-2.232,0.934-4.668,1.401-7.313,1.401
		c-4.567,0-8.196-1.426-10.894-4.28c-2.645-2.902-3.967-6.768-3.967-11.595c0-6.276,2.256-12.656,6.768-19.141
		c4.563-6.481,10.58-11.849,18.053-16.105c2.49-1.503,5.368-2.905,8.637-4.203c3.319-1.296,6.561-2.307,9.729-3.035
		c3.161-0.725,5.858-1.085,8.092-1.088c4.718,0,7.076,1.867,7.08,5.601c0,1.713-0.6,3.036-1.791,3.97
		c-1.142,0.881-3.189,1.582-6.146,2.101c-4.824,0.88-9.054,2.099-12.684,3.655c-3.578,1.506-7.056,3.502-10.426,5.993
		c-4.202,3.062-7.574,6.485-10.115,10.272c-2.489,3.734-3.735,7.08-3.735,10.035c0,1.611,0.361,2.906,1.089,3.893
		c0.777,0.934,1.813,1.398,3.112,1.398c1.868,0,3.786-0.724,5.758-2.178c2.023-1.503,4.46-3.943,7.314-7.313l0.7-1.712
		c1.401-3.27,2.18-5.005,2.334-5.215l2.413-5.135c1.503-3.215,2.877-5.442,4.123-6.69c1.296-1.245,2.877-1.869,4.747-1.869
		c1.657,0,3.033,0.495,4.124,1.48c1.091,0.934,1.635,2.128,1.635,3.578c0,1.352-0.677,3.452-2.022,6.303l-2.567,5.369
		c-0.366,0.778-0.757,1.583-1.169,2.414c-0.365,0.777-0.753,1.582-1.168,2.412c-1.298,2.594-1.943,4.41-1.943,5.446
		c0,1.866,0.905,2.801,2.722,2.801c1.142,0,2.565-0.519,4.28-1.556c1.763-1.088,4.771-3.241,9.025-6.458
		c2.491-1.867,4.124-3.035,4.901-3.5c0.831-0.468,1.71-0.7,2.647-0.7c1.347,0,2.541,0.493,3.578,1.479
		c1.089,0.932,1.636,2.049,1.636,3.346c0,3.166-3.244,6.979-9.728,11.438c-4.877,3.32-8.896,5.627-12.061,6.926
		c-3.112,1.246-6.25,1.867-9.415,1.867C213.29,99.468,210.359,97.212,209.581,92.697L209.581,92.697z"/>
	<path fill="#FF6100" d="M265.605,47.023c1.606-1.606,3.81-3.006,6.613-4.201c2.8-1.192,5.315-1.788,7.547-1.79
		c3.216,0,5.811,0.933,7.782,2.801c2.023,1.867,3.034,4.333,3.034,7.392c0,3.89-1.454,8.691-4.356,14.395l-3.502,6.925l-3.19,6.382
		c-1.194,2.333-1.79,4.021-1.79,5.058c0,1.766,0.803,2.645,2.413,2.645c0.778,0,1.633-0.207,2.567-0.622
		c0.933-0.414,2.125-1.114,3.579-2.103c1.452-0.981,3.526-2.564,6.226-4.744c2.746-2.126,4.641-3.477,5.68-4.046
		c1.035-0.623,2.124-0.934,3.268-0.934c1.402,0,2.592,0.493,3.579,1.478c0.984,0.988,1.477,2.178,1.479,3.58
		c0,2.699-2.49,5.912-7.471,9.646c-9.131,7.057-16.858,10.58-23.186,10.583c-3.581,0-6.536-1.089-8.87-3.269
		c-2.286-2.178-3.425-5.059-3.425-8.635c0-1.869,0.545-4.358,1.633-7.473c0.985-2.592,3.423-7.726,7.314-15.405
		c2.336-4.616,3.502-7.416,3.502-8.404c0-1.453-0.754-2.176-2.257-2.18c-1.453,0-3.604,0.833-6.457,2.491
		c-2.801,1.611-5.551,3.607-8.248,5.992l-13.538,28.947c-1.559,3.268-2.856,5.42-3.893,6.457c-0.987,0.984-2.386,1.477-4.202,1.479
		c-1.71,0-3.112-0.52-4.2-1.556c-1.142-1.091-1.711-2.463-1.712-4.123c0-1.192,0.7-3.293,2.1-6.304l17.977-38.519
		c1.449-3.112,2.719-5.21,3.813-6.303c1.088-1.087,2.514-1.633,4.279-1.633c1.762,0,3.187,0.521,4.28,1.556
		c1.089,0.987,1.633,2.283,1.633,3.89L265.605,47.023L265.605,47.023z"/>
	<path fill="#FF6100" d="M295.717,74.568l11.984-25.6c1.503-3.215,2.774-5.341,3.813-6.379c1.089-1.035,2.515-1.554,4.279-1.556
		c1.658,0,3.06,0.521,4.2,1.556c1.143,1.039,1.711,2.387,1.714,4.047c0,1.298-0.701,3.397-2.102,6.303l-12.138,26.143
		c-1.038,2.232-1.556,3.841-1.556,4.824c0,1.662,0.802,2.49,2.41,2.49c2.23,0,6.404-2.41,12.529-7.234
		c2.435-1.969,4.274-3.293,5.524-3.969c1.242-0.726,2.307-1.087,3.188-1.089c1.401,0,2.592,0.495,3.579,1.477
		c0.985,0.987,1.478,2.207,1.479,3.659c0,2.542-2.41,5.758-7.234,9.646c-8.82,7.057-16.602,10.58-23.345,10.584
		c-3.684,0-6.64-1.09-8.87-3.27c-2.232-2.178-3.343-4.979-3.345-8.402c0-1.658,0.337-3.604,1.011-5.836
		C293.512,79.73,294.47,77.268,295.717,74.568L295.717,74.568z M330.343,30.06c0,2.544-0.754,4.696-2.257,6.46
		c-1.455,1.712-3.397,2.567-5.836,2.567c-2.023,0-3.683-0.648-4.979-1.945c-1.243-1.347-1.867-3.06-1.867-5.136
		c0-2.591,0.752-4.694,2.257-6.302c1.556-1.607,3.501-2.41,5.836-2.414c1.97,0,3.603,0.624,4.902,1.869
		C329.695,26.404,330.34,28.037,330.343,30.06L330.343,30.06z"/>
	<path fill="#FF6100" d="M353.373,92.697c-3.421,2.648-6.277,4.437-8.556,5.369c-2.232,0.934-4.67,1.401-7.314,1.401
		c-4.569,0-8.198-1.426-10.896-4.28c-2.645-2.902-3.966-6.768-3.966-11.595c0-6.276,2.256-12.656,6.769-19.141
		c4.564-6.481,10.578-11.849,18.051-16.105c2.491-1.503,5.368-2.905,8.637-4.203c3.316-1.296,6.563-2.307,9.729-3.035
		c3.164-0.725,5.858-1.085,8.094-1.088c4.718,0,7.078,1.867,7.08,5.601c0,1.713-0.602,3.036-1.791,3.97
		c-1.143,0.881-3.189,1.582-6.148,2.101c-4.821,0.88-9.049,2.099-12.684,3.655c-3.576,1.506-7.057,3.502-10.424,5.993
		c-4.203,3.062-7.574,6.485-10.116,10.272c-2.49,3.734-3.734,7.08-3.734,10.035c0,1.611,0.361,2.906,1.088,3.893
		c0.778,0.934,1.813,1.398,3.114,1.398c1.866,0,3.786-0.724,5.757-2.178c2.022-1.503,4.459-3.943,7.313-7.313l0.7-1.712
		c1.404-3.27,2.181-5.005,2.335-5.215l2.414-5.135c1.504-3.215,2.873-5.442,4.122-6.69c1.296-1.245,2.878-1.869,4.747-1.869
		c1.661,0,3.034,0.495,4.123,1.48c1.092,0.934,1.637,2.128,1.637,3.578c0,1.352-0.679,3.452-2.023,6.303l-2.564,5.369
		c-0.367,0.778-0.756,1.583-1.171,2.414c-0.362,0.777-0.753,1.582-1.169,2.412c-1.299,2.594-1.941,4.41-1.941,5.446
		c0,1.866,0.904,2.801,2.723,2.801c1.141,0,2.564-0.519,4.279-1.556c1.763-1.088,4.771-3.241,9.024-6.458
		c2.49-1.867,4.127-3.035,4.903-3.5c0.828-0.468,1.709-0.7,2.646-0.7c1.346,0,2.541,0.493,3.577,1.479
		c1.091,0.932,1.634,2.049,1.634,3.346c0,3.166-3.242,6.979-9.727,11.438c-4.876,3.32-8.895,5.627-12.059,6.926
		c-3.114,1.246-6.252,1.867-9.418,1.867C357.083,99.468,354.152,97.212,353.373,92.697L353.373,92.697z"/>
	<path fill="#FF6100" d="M380.875,79.148c0,0,22.845-23.241,52.025-17.891c29.188,5.35,20.566,23.811,53.244,24.475
		c32.242,0.656,50.213-10.791,50.213-10.791l3.656,10.251c0,0-20.221,12.785-56.178,11.473
		C447.872,95.354,452.68,75.4,431.37,72.455c-21.313-2.948-42.539,15.04-42.539,15.04L380.875,79.148L380.875,79.148z"/>
	<polygon fill="#FF6100" points="530.952,75.316 536.387,88.745 544.17,87.439 537.834,70.731 	"/>
	<polygon fill="#FF6100" points="540.418,69.409 547.293,86.697 553.448,85.443 545.899,65.548 	"/>
	<polygon fill="#FF6100" points="548.711,64.046 556.958,84.943 562.969,83.637 554.112,60.58 	"/>
	<polygon fill="#FF6100" points="556.723,59.005 566.176,83.09 573.823,81.73 598.151,72.043 595.25,64.806 606.612,60.177 
		601.297,47.761 590.463,52.261 587.606,45.199 563.573,54.51 	"/>
	<polygon fill="#FF6100" points="604.036,46.717 609.303,59.276 632.678,49.993 627.606,37.341 	"/>
	<polygon fill="#FF6100" points="630.53,36.687 635.418,48.948 637.403,48.379 636.647,45.579 646.743,44.143 649.012,38.63 
		647.657,34.965 641.448,32.381 633.745,38.342 632.473,35.78 	"/>
	<path fill="#FF6100" d="M618.512,91.791c0,3.705,2.984,6.691,6.691,6.691c3.705,0,6.691-2.986,6.691-6.691
		s-2.986-6.693-6.691-6.693C621.497,85.096,618.512,88.085,618.512,91.791L618.512,91.791z"/>
	<path fill="#FF6100" d="M671.155,91.968c0-1.972-1.672-4.063-3.828-4.063c-3.762,0-6.395,3.826-10.875,3.826
		c-4.002,0-6.271-2.568-6.574-6.514h17.449c3.947,0,5.68-1.314,5.68-5.02c0-4.661-4.182-14.104-17.926-14.104
		c-9.799,0-17.508,5.08-17.508,16.374c0,11.354,7.709,16.433,17.508,16.433C666.973,98.9,671.155,95.375,671.155,91.968
		L671.155,91.968z M649.877,79.122c0.18-4.361,3.049-5.856,5.801-5.856c3.043,0,5.736,1.553,5.736,5.856H649.877L649.877,79.122z"/>
	<path fill="#FF6100" d="M695.995,89.639c0,1.197-1.256,2.45-3.887,2.45c-5.916,0-7.588-4.542-11.053-4.542
		c-2.395,0-4.365,1.735-4.365,3.766c0,5.199,7.053,7.59,15,7.59c12.91,0,16.971-5.379,16.971-10.815
		c0-5.021-4.182-7.829-10.93-9.321l-5.203-1.138c-3.287-0.716-3.822-1.313-3.822-2.508c0-1.435,1.252-2.211,3.461-2.211
		c5.859,0,7.109,3.823,11.178,3.823c2.393,0,4.063-1.674,4.063-3.823c0-4.78-7.59-6.813-14.879-6.813
		c-12.313,0-15.773,5.379-15.773,10.159c0,4.601,2.631,7.829,11.592,9.739l3.646,0.777
		C695.397,87.489,695.995,88.563,695.995,89.639L695.995,89.639z"/>
	<path fill="#FF6100" d="M68.846,13.924c0-4.272,3.464-7.737,7.736-7.737c4.273,0,7.736,3.465,7.736,7.737
		c0,4.273-3.463,7.734-7.736,7.734C72.31,21.658,68.846,18.197,68.846,13.924L68.846,13.924z M69.143,51.161h15.455v54.922
		c-0.069,38.073-38.455,36.651-38.455,36.651c-4.119-0.176-7.403-3.57-7.403-7.731c0-4.187,3.334-7.599,7.486-7.735
		c23.053-0.135,22.98-19.138,22.917-21.078V51.161L69.143,51.161z M69.143,51.948v0.68l-0.018-0.507
		c0-4.271,3.463-7.736,7.736-7.736c4.213,0,7.641,3.371,7.736,7.563H69.143L69.143,51.948z"/>
	<path fill="#FF6100" d="M14.493,83.335c0,8.618,6.986,15.603,15.605,15.603c8.617,0,15.604-6.983,15.604-15.603
		s-6.987-15.604-15.604-15.604C21.479,67.731,14.493,74.717,14.493,83.335L14.493,83.335z M45.059,13.924
		c0-4.272,3.463-7.737,7.736-7.737c4.126,0,7.508,3.233,7.731,7.305V83.08c-0.009,17.044-13.556,30.592-30.266,30.592
		C13.547,113.671,0,100.123,0,83.411s13.547-30.258,30.261-30.258c5.378,0,10.432,1.405,14.811,3.866V14.393L45.059,13.924
		L45.059,13.924z"/>
</g>
</svg>
